P2
100 100
255
255 249 245 240 235 231 226 222 218 214 210 207 203 200 196 193 190 187 184 181 178 176 173 171 169 166 164 162 160 158 156 154 152 151 149 147 146 144 143 141 140 138 137 136 134 133 132 130 129 128 126 125 124 122 121 120 118 117 116 114 113 111 110 108 107 105 103 102 100 98 96 94 92 90 88 85 83 81 78 76 73 70 67 64 61 58 54 51 47 44 40 36 32 28 23 19 14 9 5 0 
249 244 240 235 230 226 222 218 214 210 206 203 199 196 193 189 186 184 181 178 175 173 171 168 166 164 162 160 158 156 154 152 151 149 147 146 144 143 141 140 139 137 136 135 134 132 131 130 129 128 126 125 124 123 122 120 119 118 117 115 114 113 111 110 108 107 105 103 102 100 98 96 94 92 90 88 86 83 81 79 76 73 70 68 65 61 58 55 51 48 44 40 36 32 28 24 19 14 10 5 
245 240 235 230 226 222 218 214 210 206 202 199 195 192 189 186 183 180 178 175 173 170 168 166 163 161 159 157 156 154 152 150 149 147 146 144 143 142 140 139 138 137 135 134 133 132 131 130 129 128 126 125 124 123 122 121 120 119 117 116 115 114 112 111 110 108 107 105 104 102 100 98 97 95 93 91 88 86 84 81 79 76 74 71 68 65 62 59 55 52 48 44 40 36 32 28 24 19 14 9 
240 235 230 226 222 217 213 209 206 202 199 195 192 189 186 183 180 177 175 172 170 168 165 163 161 159 157 155 154 152 150 149 147 146 144 143 142 140 139 138 137 136 135 134 133 132 131 129 128 127 127 126 125 123 122 121 120 119 118 117 116 115 114 112 111 110 108 107 105 104 102 100 99 97 95 93 91 89 86 84 82 79 77 74 71 68 65 62 59 55 52 48 45 41 37 32 28 24 19 14 
235 230 226 222 217 213 209 206 202 198 195 192 189 185 183 180 177 174 172 169 167 165 163 161 159 157 155 153 152 150 149 147 146 144 143 142 141 139 138 137 136 135 134 133 132 131 130 129 128 127 127 126 125 124 123 122 121 120 119 118 117 116 115 113 112 111 110 108 107 105 104 102 101 99 97 95 93 91 89 87 85 82 80 77 74 71 69 65 62 59 56 52 48 45 41 37 32 28 24 19 
231 226 222 217 213 209 205 202 198 195 191 188 185 182 179 177 174 172 169 167 165 162 160 158 157 155 153 151 150 148 147 146 144 143 142 141 139 138 137 136 135 134 133 133 132 131 130 129 128 127 127 126 125 124 123 122 121 121 120 119 118 117 116 115 113 112 111 110 108 107 106 104 103 101 99 97 96 94 92 89 87 85 82 80 77 75 72 69 66 63 59 56 52 49 45 41 37 32 28 23 
226 222 218 213 209 205 202 198 195 191 188 185 182 179 176 174 171 169 167 164 162 160 158 156 155 153 151 150 148 147 145 144 143 142 140 139 138 137 136 135 135 134 133 132 131 130 130 129 128 127 127 126 125 124 124 123 122 121 120 119 119 118 117 116 115 114 112 111 110 109 107 106 104 103 101 99 98 96 94 92 90 87 85 83 80 78 75 72 69 66 63 59 56 52 49 45 41 36 32 28 
222 218 214 209 206 202 198 195 191 188 185 182 179 176 174 171 169 166 164 162 160 158 156 154 153 151 149 148 146 145 144 143 141 140 139 138 137 136 135 135 134 133 132 131 131 130 129 129 128 127 127 126 125 125 124 123 123 122 121 120 119 119 118 117 116 115 114 113 111 110 109 108 106 105 103 101 100 98 96 94 92 90 88 85 83 80 78 75 72 69 66 63 59 56 52 48 45 40 36 32 
218 214 210 206 202 198 195 191 188 185 182 179 176 173 171 168 166 164 162 160 158 156 154 152 151 149 148 146 145 144 142 141 140 139 138 137 136 135 135 134 133 132 132 131 130 130 129 129 128 127 127 126 125 125 124 124 123 122 122 121 120 119 119 118 117 116 115 114 113 112 110 109 108 106 105 103 102 100 98 96 94 92 90 88 86 83 81 78 75 72 69 66 63 59 56 52 48 44 40 36 
214 210 206 202 198 195 191 188 185 182 179 176 173 171 168 166 164 161 159 157 156 154 152 150 149 147 146 145 143 142 141 140 139 138 137 136 135 135 134 133 132 132 131 131 130 129 129 128 128 127 127 126 126 125 125 124 123 123 122 122 121 120 119 119 118 117 116 115 114 113 112 111 109 108 107 105 104 102 100 98 97 95 93 90 88 86 83 81 78 75 72 69 66 63 59 56 52 48 44 40 
210 206 202 199 195 191 188 185 182 179 176 173 171 168 166 163 161 159 157 155 154 152 150 149 147 146 144 143 142 141 140 139 138 137 136 135 135 134 133 132 132 131 131 130 130 129 129 128 128 127 127 126 126 125 125 124 124 123 123 122 122 121 120 119 119 118 117 116 115 114 113 112 111 110 108 107 105 104 102 100 99 97 95 93 91 88 86 83 81 78 75 72 69 66 63 59 55 52 48 44 
207 203 199 195 192 188 185 182 179 176 173 171 168 166 163 161 159 157 155 153 152 150 148 147 146 144 143 142 141 140 139 138 137 136 135 134 134 133 132 132 131 131 130 130 129 129 128 128 128 127 127 126 126 126 125 125 124 124 123 123 122 122 121 120 120 119 118 117 116 115 114 113 112 111 110 108 107 106 104 102 101 99 97 95 93 91 88 86 83 81 78 75 72 69 66 62 59 55 51 47 
203 199 195 192 189 185 182 179 176 173 171 168 166 163 161 159 157 155 153 151 150 148 147 145 144 143 142 140 139 138 137 137 136 135 134 134 133 132 132 131 131 130 130 129 129 129 128 128 128 127 127 126 126 126 125 125 125 124 124 123 123 122 122 121 120 120 119 118 117 117 116 115 114 112 111 110 109 107 106 104 103 101 99 97 95 93 91 88 86 83 81 78 75 72 69 65 62 59 55 51 
200 196 192 189 185 182 179 176 173 171 168 166 163 161 159 157 155 153 151 150 148 147 145 144 143 141 140 139 138 137 136 136 135 134 133 133 132 132 131 131 130 130 129 129 129 128 128 128 127 127 127 127 126 126 126 125 125 125 124 124 123 123 122 122 121 121 120 119 118 118 117 116 115 114 113 111 110 109 107 106 104 103 101 99 97 95 93 91 88 86 83 81 78 75 72 69 65 62 58 54 
196 193 189 186 183 179 176 174 171 168 166 163 161 159 157 155 153 151 150 148 146 145 144 142 141 140 139 138 137 136 135 135 134 133 133 132 132 131 131 130 130 129 129 129 128 128 128 128 127 127 127 127 126 126 126 126 125 125 125 124 124 123 123 122 122 121 121 120 119 119 118 117 116 115 114 113 112 110 109 108 106 104 103 101 99 97 95 93 91 88 86 83 80 78 75 71 68 65 61 58 
193 189 186 183 180 177 174 171 168 166 163 161 159 157 155 153 151 149 148 146 145 144 142 141 140 139 138 137 136 135 134 134 133 132 132 131 131 130 130 130 129 129 129 128 128 128 128 128 127 127 127 127 126 126 126 126 126 125 125 125 124 124 124 123 123 122 122 121 120 120 119 118 117 116 115 114 113 112 110 109 108 106 105 103 101 99 97 95 93 91 88 86 83 80 77 74 71 68 65 61 
190 186 183 180 177 174 171 169 166 164 161 159 157 155 153 151 149 148 146 145 143 142 141 140 139 138 137 136 135 134 134 133 132 132 131 131 130 130 130 129 129 129 128 128 128 128 128 127 127 127 127 127 127 126 126 126 126 126 125 125 125 124 124 124 123 123 122 122 121 120 120 119 118 117 116 115 114 113 112 111 109 108 106 105 103 101 99 97 95 93 90 88 85 83 80 77 74 71 68 64 
187 184 180 177 174 172 169 166 164 161 159 157 155 153 151 149 148 146 145 143 142 141 140 139 138 137 136 135 134 133 133 132 132 131 131 130 130 129 129 129 129 128 128 128 128 128 127 127 127 127 127 127 127 127 126 126 126 126 126 125 125 125 125 124 124 123 123 122 122 121 121 120 119 118 117 116 115 114 113 112 111 109 108 106 105 103 101 99 97 95 93 90 88 85 82 80 77 74 70 67 
184 181 178 175 172 169 167 164 162 159 157 155 153 151 150 148 146 145 143 142 141 140 138 137 136 136 135 134 133 133 132 131 131 130 130 130 129 129 129 128 128 128 128 128 128 127 127 127 127 127 127 127 127 127 127 126 126 126 126 126 126 125 125 125 124 124 124 123 123 122 121 121 120 119 118 118 117 116 114 113 112 111 109 108 106 104 103 101 99 97 95 92 90 87 85 82 79 76 73 70 
181 178 175 172 169 167 164 162 160 157 155 153 151 150 148 146 145 143 142 141 140 138 137 136 135 135 134 133 132 132 131 131 130 130 129 129 129 129 128 128 128 128 128 127 127 127 127 127 127 127 127 127 127 127 127 127 127 126 126 126 126 126 125 125 125 125 124 124 123 123 122 122 121 120 119 119 118 117 116 114 113 112 111 109 108 106 104 103 101 99 97 94 92 90 87 85 82 79 76 73 
178 175 173 170 167 165 162 160 158 156 154 152 150 148 146 145 143 142 141 140 138 137 136 135 135 134 133 132 132 131 131 130 130 129 129 129 128 128 128 128 128 127 127 127 127 127 127 127 127 127 127 127 127 127 127 127 127 127 127 126 126 126 126 126 125 125 125 124 124 123 123 122 122 121 120 119 119 118 117 116 114 113 112 111 109 108 106 104 102 100 98 96 94 92 89 87 84 81 79 76 
176 173 170 168 165 162 160 158 156 154 152 150 148 147 145 144 142 141 140 138 137 136 135 134 134 133 132 132 131 130 130 130 129 129 128 128 128 128 128 127 127 127 127 127 127 127 127 127 127 127 127 127 127 127 127 127 127 127 127 127 127 126 126 126 126 126 125 125 124 124 124 123 122 122 121 120 120 119 118 117 116 114 113 112 110 109 107 106 104 102 100 98 96 94 92 89 86 84 81 78 
173 171 168 165 163 160 158 156 154 152 150 148 147 145 144 142 141 140 138 137 136 135 134 134 133 132 131 131 130 130 129 129 129 128 128 128 128 127 127 127 127 127 127 127 127 127 127 127 127 127 127 127 127 127 127 127 127 127 127 127 127 127 127 126 126 126 126 125 125 125 124 124 123 123 122 121 120 120 119 118 117 116 114 113 112 110 109 107 106 104 102 100 98 96 94 91 89 86 83 81 
171 168 166 163 161 158 156 154 152 150 149 147 145 144 142 141 140 139 137 136 135 134 134 133 132 131 131 130 130 129 129 129 128 128 128 127 127 127 127 127 127 127 127 127 127 127 127 127 127 127 127 127 127 127 127 127 127 127 127 127 127 127 127 127 127 126 126 126 125 125 125 124 124 123 123 122 121 120 120 119 118 117 115 114 113 112 110 109 107 105 104 102 100 98 96 93 91 88 86 83 
169 166 163 161 159 157 155 153 151 149 147 146 144 143 141 140 139 138 136 135 135 134 133 132 131 131 130 130 129 129 128 128 128 128 127 127 127 127 127 127 127 127 127 127 127 127 127 127 127 127 127 127 127 127 127 127 127 127 127 127 127 127 127 127 127 127 126 126 126 126 125 125 124 124 123 123 122 121 120 119 119 118 116 115 114 113 111 110 108 107 105 103 101 99 97 95 93 91 88 85 
166 164 161 159 157 155 153 151 149 147 146 144 143 141 140 139 138 137 136 135 134 133 132 131 131 130 130 129 129 128 128 128 127 127 127 127 127 127 127 127 127 127 127 127 127 127 127 127 127 127 127 127 127 127 127 127 127 127 127 127 127 127 127 127 127 127 127 127 126 126 126 125 125 124 124 123 123 122 121 120 119 118 117 116 115 114 113 111 110 108 107 105 103 101 99 97 95 93 90 88 
164 162 159 157 155 153 151 149 148 146 144 143 142 140 139 138 137 136 135 134 133 132 131 131 130 130 129 129 128 128 128 127 127 127 127 127 127 126 126 126 126 126 126 126 127 127 127 127 127 127 127 127 127 127 127 127 128 128 128 128 128 128 128 127 127 127 127 127 127 126 126 126 125 125 124 124 123 123 122 121 120 119 118 117 116 115 114 112 111 110 108 106 105 103 101 99 97 95 92 90 
162 160 157 155 153 151 150 148 146 145 143 142 140 139 138 137 136 135 134 133 132 132 131 130 130 129 129 128 128 128 127 127 127 127 127 126 126 126 126 126 126 126 126 126 126 127 127 127 127 127 127 127 127 127 127 128 128 128 128 128 128 128 128 128 128 127 127 127 127 127 126 126 126 125 125 124 124 123 122 122 121 120 119 118 117 116 115 114 112 111 109 108 106 104 103 101 99 97 94 92 
160 158 156 154 152 150 148 146 145 143 142 141 139 138 137 136 135 134 133 132 132 131 130 130 129 129 128 128 128 127 127 127 127 126 126 126 126 126 126 126 126 126 126 126 126 126 127 127 127 127 127 127 127 127 128 128 128 128 128 128 128 128 128 128 128 128 128 127 127 127 127 126 126 126 125 125 124 124 123 122 122 121 120 119 118 117 116 115 113 112 111 109 108 106 104 102 100 98 96 94 
158 156 154 152 150 148 147 145 144 142 141 140 138 137 136 135 134 133 133 132 131 130 130 129 129 128 128 128 127 127 127 127 126 126 126 126 126 126 126 126 126 126 126 126 126 126 127 127 127 127 127 127 127 127 128 128 128 128 128 128 128 128 128 128 128 128 128 128 127 127 127 127 126 126 126 125 125 124 124 123 122 121 121 120 119 118 117 116 114 113 112 110 109 107 106 104 102 100 98 96 
156 154 152 150 149 147 145 144 142 141 140 139 137 136 135 134 134 133 132 131 131 130 129 129 128 128 128 127 127 127 127 126 126 126 126 126 126 126 126 126 126 126 126 126 126 126 127 127 127 127 127 127 127 127 128 128 128 128 128 128 128 128 128 128 128 128 128 128 128 127 127 127 127 126 126 126 125 125 124 123 123 122 121 120 120 119 118 117 115 114 113 112 110 109 107 105 104 102 100 98 
154 152 150 149 147 146 144 143 141 140 139 138 137 136 135 134 133 132 131 131 130 130 129 129 128 128 127 127 127 127 126 126 126 126 126 126 126 126 126 126 126 126 126 126 126 126 127 127 127 127 127 127 127 127 128 128 128 128 128 128 128 128 128 128 128 128 128 128 128 128 127 127 127 127 126 126 125 125 124 124 123 123 122 121 120 119 118 117 116 115 114 113 111 110 108 107 105 104 102 100 
152 151 149 147 146 144 143 141 140 139 138 137 136 135 134 133 132 132 131 130 130 129 129 128 128 127 127 127 127 126 126 126 126 126 126 126 126 126 126 126 126 126 126 126 126 126 127 127 127 127 127 127 127 127 128 128 128 128 128 128 128 128 128 128 128 128 128 128 128 128 128 127 127 127 127 126 126 125 125 124 124 123 122 122 121 120 119 118 117 116 115 114 113 111 110 108 107 105 103 102 
151 149 147 146 144 143 142 140 139 138 137 136 135 134 133 132 132 131 130 130 129 129 128 128 128 127 127 127 126 126 126 126 126 126 126 126 126 126 126 126 126 126 126 126 126 126 127 127 127 127 127 127 127 127 128 128 128 128 128 128 128 128 128 128 128 128 128 128 128 128 128 128 127 127 127 126 126 126 125 125 124 124 123 122 122 121 120 119 118 117 116 115 114 112 111 110 108 107 105 103 
149 147 146 144 143 142 140 139 138 137 136 135 134 133 133 132 131 131 130 129 129 128 128 128 127 127 127 127 126 126 126 126 126 126 126 126 126 126 126 126 126 126 126 126 126 126 127 127 127 127 127 127 127 127 128 128 128 128 128 128 128 128 128 128 128 128 128 128 128 128 128 128 127 127 127 127 126 126 126 125 125 124 123 123 122 121 121 120 119 118 117 116 115 114 112 111 110 108 107 105 
147 146 144 143 142 141 139 138 137 136 135 134 134 133 132 131 131 130 130 129 129 128 128 127 127 127 127 126 126 126 126 126 126 126 126 126 126 126 126 126 126 126 126 126 126 126 127 127 127 127 127 127 127 127 128 128 128 128 128 128 128 128 128 128 128 128 128 128 128 128 128 128 128 127 127 127 127 126 126 125 125 124 124 123 123 122 121 120 120 119 118 117 116 115 113 112 111 110 108 107 
146 144 143 142 141 139 138 137 136 135 135 134 133 132 132 131 130 130 129 129 128 128 128 127 127 127 127 126 126 126 126 126 126 126 126 126 126 126 126 126 126 126 126 126 126 126 127 127 127 127 127 127 127 127 128 128 128 128 128 128 128 128 128 128 128 128 128 128 128 128 128 128 128 127 127 127 127 126 126 126 125 125 124 124 123 122 122 121 120 119 119 118 117 116 115 113 112 111 110 108 
144 143 142 140 139 138 137 136 135 135 134 133 132 132 131 130 130 129 129 129 128 128 127 127 127 127 126 126 126 126 126 126 126 126 126 126 126 126 126 126 126 126 126 126 126 126 127 127 127 127 127 127 127 127 128 128 128 128 128 128 128 128 128 128 128 128 128 128 128 128 128 128 128 128 127 127 127 127 126 126 125 125 125 124 124 123 122 122 121 120 119 119 118 117 116 115 114 112 111 110 
143 141 140 139 138 137 136 135 135 134 133 132 132 131 131 130 130 129 129 128 128 128 127 127 127 127 126 126 126 126 126 126 126 126 126 126 126 126 126 126 126 126 126 126 126 126 127 127 127 127 127 127 127 127 128 128 128 128 128 128 128 128 128 128 128 128 128 128 128 128 128 128 128 128 127 127 127 127 126 126 126 125 125 124 124 123 123 122 122 121 120 119 119 118 117 116 115 114 113 111 
141 140 139 138 137 136 135 135 134 133 132 132 131 131 130 130 129 129 128 128 128 127 127 127 127 127 126 126 126 126 126 126 126 126 126 126 126 126 126 126 126 126 126 126 126 126 127 127 127 127 127 127 127 127 128 128 128 128 128 128 128 128 128 128 128 128 128 128 128 128 128 128 128 128 127 127 127 127 127 126 126 126 125 125 124 124 123 123 122 122 121 120 119 119 118 117 116 115 114 113 
140 139 138 137 136 135 135 134 133 132 132 131 131 130 130 129 129 129 128 128 128 127 127 127 127 127 126 126 126 126 126 126 126 126 126 126 126 126 126 126 126 126 126 126 126 127 127 127 127 127 127 127 127 127 127 128 128 128 128 128 128 128 128 128 128 128 128 128 128 128 128 128 128 128 127 127 127 127 127 126 126 126 125 125 125 124 124 123 123 122 122 121 120 119 119 118 117 116 115 114 
138 137 137 136 135 134 134 133 132 132 131 131 130 130 129 129 129 128 128 128 127 127 127 127 127 127 126 126 126 126 126 126 126 126 126 126 126 126 126 126 126 126 126 126 126 127 127 127 127 127 127 127 127 127 127 128 128 128 128 128 128 128 128 128 128 128 128 128 128 128 128 128 128 128 127 127 127 127 127 127 126 126 126 125 125 125 124 124 123 123 122 122 121 120 120 119 118 117 117 116 
137 136 135 135 134 133 133 132 132 131 131 130 130 129 129 129 128 128 128 128 127 127 127 127 127 127 126 126 126 126 126 126 126 126 126 126 126 126 126 126 126 126 126 126 127 127 127 127 127 127 127 127 127 127 127 127 128 128 128 128 128 128 128 128 128 128 128 128 128 128 128 128 128 128 127 127 127 127 127 127 126 126 126 126 125 125 125 124 124 123 123 122 122 121 121 120 119 119 118 117 
136 135 134 134 133 133 132 131 131 131 130 130 129 129 129 128 128 128 128 127 127 127 127 127 127 127 126 126 126 126 126 126 126 126 126 126 126 126 126 126 126 126 126 127 127 127 127 127 127 127 127 127 127 127 127 127 127 128 128 128 128 128 128 128 128 128 128 128 128 128 128 128 128 128 127 127 127 127 127 127 127 126 126 126 126 125 125 125 124 124 123 123 123 122 121 121 120 120 119 118 
134 134 133 133 132 132 131 131 130 130 130 129 129 129 128 128 128 128 128 127 127 127 127 127 127 127 127 126 126 126 126 126 126 126 126 126 126 126 126 126 126 126 127 127 127 127 127 127 127 127 127 127 127 127 127 127 127 127 128 128 128 128 128 128 128 128 128 128 128 128 128 128 128 127 127 127 127 127 127 127 127 126 126 126 126 126 125 125 125 124 124 124 123 123 122 122 121 121 120 120 
133 132 132 132 131 131 130 130 130 129 129 129 129 128 128 128 128 128 127 127 127 127 127 127 127 127 127 127 126 126 126 126 126 126 126 126 126 126 126 126 127 127 127 127 127 127 127 127 127 127 127 127 127 127 127 127 127 127 127 127 128 128 128 128 128 128 128 128 128 128 128 128 127 127 127 127 127 127 127 127 127 127 126 126 126 126 126 125 125 125 125 124 124 124 123 123 122 122 122 121 
132 131 131 131 130 130 130 129 129 129 129 128 128 128 128 128 128 127 127 127 127 127 127 127 127 127 127 127 127 127 127 127 127 127 127 127 127 127 127 127 127 127 127 127 127 127 127 127 127 127 127 127 127 127 127 127 127 127 127 127 127 127 127 127 127 127 127 127 127 127 127 127 127 127 127 127 127 127 127 127 127 127 127 126 126 126 126 126 126 125 125 125 125 124 124 124 123 123 123 122 
130 130 130 129 129 129 129 129 129 128 128 128 128 128 128 128 127 127 127 127 127 127 127 127 127 127 127 127 127 127 127 127 127 127 127 127 127 127 127 127 127 127 127 127 127 127 127 127 127 127 127 127 127 127 127 127 127 127 127 127 127 127 127 127 127 127 127 127 127 127 127 127 127 127 127 127 127 127 127 127 127 127 127 127 126 126 126 126 126 126 126 125 125 125 125 125 125 124 124 124 
129 129 129 128 128 128 128 128 128 128 128 128 128 127 127 127 127 127 127 127 127 127 127 127 127 127 127 127 127 127 127 127 127 127 127 127 127 127 127 127 127 127 127 127 127 127 127 127 127 127 127 127 127 127 127 127 127 127 127 127 127 127 127 127 127 127 127 127 127 127 127 127 127 127 127 127 127 127 127 127 127 127 127 127 127 127 127 126 126 126 126 126 126 126 126 126 126 125 125 125 
128 128 128 127 127 127 127 127 127 127 127 127 127 127 127 127 127 127 127 127 127 127 127 127 127 127 127 127 127 127 127 127 127 127 127 127 127 127 127 127 127 127 127 127 127 127 127 127 127 127 127 127 127 127 127 127 127 127 127 127 127 127 127 127 127 127 127 127 127 127 127 127 127 127 127 127 127 127 127 127 127 127 127 127 127 127 127 127 127 127 127 127 127 127 127 127 127 126 126 126 
126 126 126 127 127 127 127 127 127 127 127 127 127 127 127 127 127 127 127 127 127 127 127 127 127 127 127 127 127 127 127 127 127 127 127 127 127 127 127 127 127 127 127 127 127 127 127 127 127 127 127 127 127 127 127 127 127 127 127 127 127 127 127 127 127 127 127 127 127 127 127 127 127 127 127 127 127 127 127 127 127 127 127 127 127 127 127 127 127 127 127 127 127 127 127 127 127 128 128 128 
125 125 125 126 126 126 126 126 126 126 126 126 126 127 127 127 127 127 127 127 127 127 127 127 127 127 127 127 127 127 127 127 127 127 127 127 127 127 127 127 127 127 127 127 127 127 127 127 127 127 127 127 127 127 127 127 127 127 127 127 127 127 127 127 127 127 127 127 127 127 127 127 127 127 127 127 127 127 127 127 127 127 127 127 127 127 127 128 128 128 128 128 128 128 128 128 128 129 129 129 
124 124 124 125 125 125 125 125 125 126 126 126 126 126 126 126 127 127 127 127 127 127 127 127 127 127 127 127 127 127 127 127 127 127 127 127 127 127 127 127 127 127 127 127 127 127 127 127 127 127 127 127 127 127 127 127 127 127 127 127 127 127 127 127 127 127 127 127 127 127 127 127 127 127 127 127 127 127 127 127 127 127 127 127 128 128 128 128 128 128 128 129 129 129 129 129 129 130 130 130 
122 123 123 123 124 124 124 125 125 125 125 126 126 126 126 126 126 127 127 127 127 127 127 127 127 127 127 127 127 127 127 127 127 127 127 127 127 127 127 127 127 127 127 127 127 127 127 127 127 127 127 127 127 127 127 127 127 127 127 127 127 127 127 127 127 127 127 127 127 127 127 127 127 127 127 127 127 127 127 127 127 127 127 128 128 128 128 128 128 129 129 129 129 130 130 130 131 131 131 132 
121 122 122 122 123 123 124 124 124 125 125 125 125 126 126 126 126 126 127 127 127 127 127 127 127 127 127 127 128 128 128 128 128 128 128 128 128 128 128 128 127 127 127 127 127 127 127 127 127 127 127 127 127 127 127 127 127 127 127 127 126 126 126 126 126 126 126 126 126 126 126 126 127 127 127 127 127 127 127 127 127 127 128 128 128 128 128 129 129 129 129 130 130 130 131 131 132 132 132 133 
120 120 121 121 122 122 123 123 124 124 124 125 125 125 126 126 126 126 126 127 127 127 127 127 127 127 127 128 128 128 128 128 128 128 128 128 128 128 128 128 128 128 127 127 127 127 127 127 127 127 127 127 127 127 127 127 127 127 126 126 126 126 126 126 126 126 126 126 126 126 126 126 126 127 127 127 127 127 127 127 127 128 128 128 128 128 129 129 129 130 130 130 131 131 132 132 133 133 134 134 
118 119 120 120 121 121 122 123 123 123 124 124 125 125 125 126 126 126 126 127 127 127 127 127 127 127 128 128 128 128 128 128 128 128 128 128 128 128 128 128 128 128 128 127 127 127 127 127 127 127 127 127 127 127 127 127 127 126 126 126 126 126 126 126 126 126 126 126 126 126 126 126 126 126 127 127 127 127 127 127 127 128 128 128 128 129 129 129 130 130 131 131 131 132 133 133 134 134 135 136 
117 118 119 119 120 121 121 122 122 123 123 124 124 125 125 125 126 126 126 126 127 127 127 127 127 127 128 128 128 128 128 128 128 128 128 128 128 128 128 128 128 128 128 128 127 127 127 127 127 127 127 127 127 127 127 127 126 126 126 126 126 126 126 126 126 126 126 126 126 126 126 126 126 126 127 127 127 127 127 127 128 128 128 128 129 129 129 130 130 131 131 132 132 133 133 134 135 135 136 137 
116 117 117 118 119 120 120 121 122 122 123 123 124 124 125 125 125 126 126 126 127 127 127 127 127 127 128 128 128 128 128 128 128 128 128 128 128 128 128 128 128 128 128 128 128 127 127 127 127 127 127 127 127 127 127 126 126 126 126 126 126 126 126 126 126 126 126 126 126 126 126 126 126 126 127 127 127 127 127 127 128 128 128 129 129 129 130 130 131 131 132 132 133 134 134 135 136 137 137 138 
114 115 116 117 118 119 119 120 121 122 122 123 123 124 124 125 125 125 126 126 126 127 127 127 127 127 128 128 128 128 128 128 128 128 128 128 128 128 128 128 128 128 128 128 128 127 127 127 127 127 127 127 127 127 127 126 126 126 126 126 126 126 126 126 126 126 126 126 126 126 126 126 126 126 127 127 127 127 127 128 128 128 129 129 129 130 130 131 131 132 132 133 134 135 135 136 137 138 139 140 
113 114 115 116 117 118 119 119 120 121 122 122 123 123 124 124 125 125 126 126 126 127 127 127 127 127 128 128 128 128 128 128 128 128 128 128 128 128 128 128 128 128 128 128 128 128 127 127 127 127 127 127 127 127 126 126 126 126 126 126 126 126 126 126 126 126 126 126 126 126 126 126 126 126 127 127 127 127 127 128 128 128 129 129 130 130 131 131 132 132 133 134 135 135 136 137 138 139 140 141 
111 113 114 115 116 117 118 119 119 120 121 122 122 123 123 124 124 125 125 126 126 126 127 127 127 127 128 128 128 128 128 128 128 128 128 128 128 128 128 128 128 128 128 128 128 128 127 127 127 127 127 127 127 127 126 126 126 126 126 126 126 126 126 126 126 126 126 126 126 126 126 126 126 126 127 127 127 127 128 128 128 129 129 130 130 131 131 132 132 133 134 135 135 136 137 138 139 140 141 143 
110 111 112 114 115 116 117 118 119 119 120 121 122 122 123 124 124 125 125 125 126 126 127 127 127 127 128 128 128 128 128 128 128 128 128 128 128 128 128 128 128 128 128 128 128 128 127 127 127 127 127 127 127 127 126 126 126 126 126 126 126 126 126 126 126 126 126 126 126 126 126 126 126 126 127 127 127 127 128 128 129 129 129 130 130 131 132 132 133 134 135 135 136 137 138 139 140 142 143 144 
108 110 111 112 113 115 116 117 118 119 119 120 121 122 122 123 124 124 125 125 126 126 126 127 127 127 127 128 128 128 128 128 128 128 128 128 128 128 128 128 128 128 128 128 128 128 127 127 127 127 127 127 127 127 126 126 126 126 126 126 126 126 126 126 126 126 126 126 126 126 126 126 126 127 127 127 127 128 128 128 129 129 130 130 131 132 132 133 134 135 135 136 137 138 139 141 142 143 144 146 
107 108 110 111 112 113 115 116 117 118 119 120 120 121 122 123 123 124 124 125 125 126 126 127 127 127 127 128 128 128 128 128 128 128 128 128 128 128 128 128 128 128 128 128 128 128 127 127 127 127 127 127 127 127 126 126 126 126 126 126 126 126 126 126 126 126 126 126 126 126 126 126 126 127 127 127 127 128 128 129 129 130 130 131 131 132 133 134 134 135 136 137 138 139 141 142 143 144 146 147 
105 107 108 110 111 112 114 115 116 117 118 119 120 121 121 122 123 123 124 125 125 126 126 126 127 127 127 127 128 128 128 128 128 128 128 128 128 128 128 128 128 128 128 128 128 128 127 127 127 127 127 127 127 127 126 126 126 126 126 126 126 126 126 126 126 126 126 126 126 126 126 126 127 127 127 127 128 128 128 129 129 130 131 131 132 133 133 134 135 136 137 138 139 140 142 143 144 146 147 149 
103 105 107 108 110 111 112 114 115 116 117 118 119 120 121 122 122 123 124 124 125 125 126 126 126 127 127 127 128 128 128 128 128 128 128 128 128 128 128 128 128 128 128 128 128 128 127 127 127 127 127 127 127 127 126 126 126 126 126 126 126 126 126 126 126 126 126 126 126 126 126 126 127 127 127 128 128 128 129 129 130 130 131 132 132 133 134 135 136 137 138 139 140 142 143 144 146 147 149 151 
102 103 105 107 108 110 111 113 114 115 116 117 118 119 120 121 122 122 123 124 124 125 125 126 126 127 127 127 127 128 128 128 128 128 128 128 128 128 128 128 128 128 128 128 128 128 127 127 127 127 127 127 127 127 126 126 126 126 126 126 126 126 126 126 126 126 126 126 126 126 126 127 127 127 127 128 128 129 129 130 130 131 132 132 133 134 135 136 137 138 139 140 141 143 144 146 147 149 151 152 
100 102 104 105 107 108 110 111 113 114 115 116 117 118 119 120 121 122 123 123 124 124 125 125 126 126 127 127 127 127 128 128 128 128 128 128 128 128 128 128 128 128 128 128 128 128 127 127 127 127 127 127 127 127 126 126 126 126 126 126 126 126 126 126 126 126 126 126 126 126 127 127 127 127 128 128 129 129 130 130 131 131 132 133 134 135 136 137 138 139 140 141 143 144 146 147 149 150 152 154 
98 100 102 104 105 107 109 110 112 113 114 115 117 118 119 120 120 121 122 123 123 124 125 125 126 126 126 127 127 127 127 128 128 128 128 128 128 128 128 128 128 128 128 128 128 128 127 127 127 127 127 127 127 127 126 126 126 126 126 126 126 126 126 126 126 126 126 126 126 127 127 127 127 128 128 128 129 129 130 131 131 132 133 134 134 135 136 137 139 140 141 142 144 145 147 149 150 152 154 156 
96 98 100 102 104 106 107 109 110 112 113 114 116 117 118 119 120 121 121 122 123 124 124 125 125 126 126 126 127 127 127 127 128 128 128 128 128 128 128 128 128 128 128 128 128 128 127 127 127 127 127 127 127 127 126 126 126 126 126 126 126 126 126 126 126 126 126 126 127 127 127 127 128 128 128 129 129 130 130 131 132 133 133 134 135 136 137 138 140 141 142 144 145 147 148 150 152 154 156 158 
94 96 98 100 102 104 106 108 109 111 112 113 115 116 117 118 119 120 121 122 122 123 124 124 125 125 126 126 126 127 127 127 127 128 128 128 128 128 128 128 128 128 128 128 128 128 127 127 127 127 127 127 127 127 126 126 126 126 126 126 126 126 126 126 126 126 126 127 127 127 127 128 128 128 129 129 130 130 131 132 132 133 134 135 136 137 138 139 141 142 143 145 146 148 150 152 154 156 158 160 
92 94 97 99 101 103 104 106 108 109 111 112 114 115 116 117 118 119 120 121 122 122 123 124 124 125 125 126 126 126 127 127 127 127 127 128 128 128 128 128 128 128 128 128 128 127 127 127 127 127 127 127 127 127 127 126 126 126 126 126 126 126 126 126 126 127 127 127 127 127 128 128 128 129 129 130 130 131 132 132 133 134 135 136 137 138 139 140 142 143 145 146 148 150 151 153 155 157 160 162 
90 92 95 97 99 101 103 105 106 108 110 111 112 114 115 116 117 118 119 120 121 122 123 123 124 124 125 125 126 126 126 127 127 127 127 127 127 128 128 128 128 128 128 128 127 127 127 127 127 127 127 127 127 127 127 127 126 126 126 126 126 126 126 127 127 127 127 127 127 128 128 128 129 129 130 130 131 131 132 133 134 135 136 137 138 139 140 142 143 144 146 148 149 151 153 155 157 159 162 164 
88 90 93 95 97 99 101 103 105 107 108 110 111 113 114 115 116 117 118 119 120 121 122 123 123 124 124 125 125 126 126 126 127 127 127 127 127 127 127 127 127 127 127 127 127 127 127 127 127 127 127 127 127 127 127 127 127 127 127 127 127 127 127 127 127 127 127 127 128 128 128 129 129 130 130 131 131 132 133 134 135 136 137 138 139 140 141 143 144 146 147 149 151 153 155 157 159 161 164 166 
85 88 91 93 95 97 99 101 103 105 107 108 110 111 113 114 115 116 118 119 119 120 121 122 123 123 124 124 125 125 126 126 126 126 127 127 127 127 127 127 127 127 127 127 127 127 127 127 127 127 127 127 127 127 127 127 127 127 127 127 127 127 127 127 127 127 128 128 128 128 129 129 130 130 131 131 132 133 134 135 135 136 138 139 140 141 143 144 146 147 149 151 153 155 157 159 161 163 166 169 
83 86 88 91 93 96 98 100 102 104 105 107 109 110 112 113 114 115 117 118 119 120 120 121 122 123 123 124 124 125 125 125 126 126 126 127 127 127 127 127 127 127 127 127 127 127 127 127 127 127 127 127 127 127 127 127 127 127 127 127 127 127 127 127 127 128 128 128 129 129 129 130 130 131 131 132 133 134 134 135 136 137 139 140 141 142 144 145 147 149 150 152 154 156 158 161 163 166 168 171 
81 83 86 89 91 94 96 98 100 102 104 106 107 109 110 112 113 114 116 117 118 119 120 120 121 122 123 123 124 124 125 125 125 126 126 126 126 127 127 127 127 127 127 127 127 127 127 127 127 127 127 127 127 127 127 127 127 127 127 127 127 127 127 128 128 128 128 129 129 129 130 130 131 131 132 133 134 134 135 136 137 138 140 141 142 144 145 147 148 150 152 154 156 158 160 163 165 168 171 173 
78 81 84 86 89 92 94 96 98 100 102 104 106 107 109 110 112 113 114 116 117 118 119 120 120 121 122 122 123 124 124 124 125 125 126 126 126 126 126 127 127 127 127 127 127 127 127 127 127 127 127 127 127 127 127 127 127 127 127 127 127 128 128 128 128 128 129 129 130 130 130 131 132 132 133 134 134 135 136 137 138 140 141 142 144 145 147 148 150 152 154 156 158 160 162 165 168 170 173 176 
76 79 81 84 87 89 92 94 96 98 100 102 104 106 108 109 111 112 113 114 116 117 118 119 119 120 121 122 122 123 123 124 124 125 125 125 126 126 126 126 126 127 127 127 127 127 127 127 127 127 127 127 127 127 127 127 127 127 127 128 128 128 128 128 129 129 129 130 130 131 131 132 132 133 134 135 135 136 137 138 140 141 142 143 145 146 148 150 152 154 156 158 160 162 165 167 170 173 175 178 
73 76 79 82 85 87 90 92 94 97 99 101 103 104 106 108 109 111 112 113 114 116 117 118 119 119 120 121 122 122 123 123 124 124 125 125 125 125 126 126 126 126 126 127 127 127 127 127 127 127 127 127 127 127 127 127 127 128 128 128 128 128 129 129 129 129 130 130 131 131 132 132 133 134 135 135 136 137 138 140 141 142 143 145 146 148 150 151 153 155 157 160 162 164 167 169 172 175 178 181 
70 73 76 79 82 85 87 90 92 95 97 99 101 103 104 106 108 109 111 112 113 114 116 117 118 118 119 120 121 121 122 123 123 124 124 124 125 125 125 126 126 126 126 126 126 127 127 127 127 127 127 127 127 127 127 128 128 128 128 128 128 129 129 129 130 130 130 131 131 132 133 133 134 135 136 136 137 138 140 141 142 143 145 146 148 150 151 153 155 157 159 162 164 167 169 172 175 178 181 184 
67 70 74 77 80 82 85 88 90 93 95 97 99 101 103 105 106 108 109 111 112 113 114 115 116 117 118 119 120 121 121 122 122 123 123 124 124 125 125 125 125 126 126 126 126 126 127 127 127 127 127 127 127 127 128 128 128 128 128 129 129 129 129 130 130 131 131 132 132 133 133 134 135 136 137 138 139 140 141 142 143 145 146 148 149 151 153 155 157 159 161 164 166 169 172 174 177 180 184 187 
64 68 71 74 77 80 83 85 88 90 93 95 97 99 101 103 105 106 108 109 111 112 113 114 115 116 117 118 119 120 120 121 122 122 123 123 124 124 124 125 125 125 126 126 126 126 126 127 127 127 127 127 127 128 128 128 128 128 129 129 129 130 130 130 131 131 132 132 133 134 134 135 136 137 138 139 140 141 142 143 145 146 148 149 151 153 155 157 159 161 164 166 169 171 174 177 180 183 186 190 
61 65 68 71 74 77 80 83 86 88 91 93 95 97 99 101 103 105 106 108 109 110 112 113 114 115 116 117 118 119 120 120 121 122 122 123 123 124 124 124 125 125 125 126 126 126 126 126 127 127 127 127 128 128 128 128 128 129 129 129 130 130 130 131 131 132 132 133 134 134 135 136 137 138 139 140 141 142 144 145 146 148 149 151 153 155 157 159 161 163 166 168 171 174 177 180 183 186 189 193 
58 61 65 68 71 75 78 80 83 86 88 91 93 95 97 99 101 103 104 106 108 109 110 112 113 114 115 116 117 118 119 119 120 121 121 122 122 123 123 124 124 125 125 125 126 126 126 126 127 127 127 127 128 128 128 128 129 129 129 130 130 131 131 132 132 133 133 134 135 135 136 137 138 139 140 141 142 144 145 146 148 150 151 153 155 157 159 161 163 166 168 171 174 176 179 183 186 189 193 196 
54 58 62 65 69 72 75 78 81 83 86 88 91 93 95 97 99 101 103 104 106 107 109 110 111 113 114 115 116 117 118 118 119 120 121 121 122 122 123 123 124 124 125 125 125 126 126 126 127 127 127 127 128 128 128 129 129 129 130 130 131 131 132 132 133 133 134 135 136 136 137 138 139 140 141 143 144 145 147 148 150 151 153 155 157 159 161 163 166 168 171 173 176 179 182 185 189 192 196 200 
51 55 59 62 65 69 72 75 78 81 83 86 88 91 93 95 97 99 101 103 104 106 107 109 110 111 112 114 115 116 117 117 118 119 120 120 121 122 122 123 123 124 124 125 125 125 126 126 126 127 127 128 128 128 129 129 129 130 130 131 131 132 132 133 134 134 135 136 137 137 138 139 140 142 143 144 145 147 148 150 151 153 155 157 159 161 163 166 168 171 173 176 179 182 185 189 192 195 199 203 
47 51 55 59 62 66 69 72 75 78 81 83 86 88 91 93 95 97 99 101 102 104 106 107 108 110 111 112 113 114 115 116 117 118 119 120 120 121 122 122 123 123 124 124 125 125 126 126 126 127 127 128 128 128 129 129 130 130 131 131 132 132 133 134 134 135 136 137 138 139 140 141 142 143 144 146 147 148 150 152 153 155 157 159 161 163 166 168 171 173 176 179 182 185 188 192 195 199 203 207 
44 48 52 55 59 63 66 69 72 75 78 81 83 86 88 91 93 95 97 99 100 102 104 105 107 108 110 111 112 113 114 115 116 117 118 119 119 120 121 122 122 123 123 124 124 125 125 126 126 127 127 128 128 129 129 130 130 131 131 132 132 133 134 135 135 136 137 138 139 140 141 142 143 144 146 147 149 150 152 154 155 157 159 161 163 166 168 171 173 176 179 182 185 188 191 195 199 202 206 210 
40 44 48 52 56 59 63 66 69 72 75 78 81 83 86 88 90 93 95 97 98 100 102 104 105 107 108 109 111 112 113 114 115 116 117 118 119 119 120 121 122 122 123 123 124 125 125 126 126 127 127 128 128 129 129 130 131 131 132 132 133 134 135 135 136 137 138 139 140 141 142 143 145 146 147 149 150 152 154 156 157 159 161 164 166 168 171 173 176 179 182 185 188 191 195 198 202 206 210 214 
36 40 44 48 52 56 59 63 66 69 72 75 78 81 83 86 88 90 92 94 96 98 100 102 103 105 106 108 109 110 112 113 114 115 116 117 118 119 119 120 121 122 122 123 124 124 125 125 126 127 127 128 129 129 130 130 131 132 132 133 134 135 135 136 137 138 139 140 141 142 144 145 146 148 149 151 152 154 156 158 160 162 164 166 168 171 173 176 179 182 185 188 191 195 198 202 206 210 214 218 
32 36 40 45 48 52 56 59 63 66 69 72 75 78 80 83 85 88 90 92 94 96 98 100 101 103 105 106 108 109 110 111 113 114 115 116 117 118 119 119 120 121 122 123 123 124 125 125 126 127 127 128 129 129 130 131 131 132 133 134 135 135 136 137 138 139 140 141 143 144 145 146 148 149 151 153 154 156 158 160 162 164 166 169 171 174 176 179 182 185 188 191 195 198 202 206 209 214 218 222 
28 32 36 41 45 49 52 56 59 63 66 69 72 75 78 80 83 85 87 90 92 94 96 98 99 101 103 104 106 107 109 110 111 112 114 115 116 117 118 119 119 120 121 122 123 124 124 125 126 127 127 128 129 130 130 131 132 133 134 135 135 136 137 138 139 140 142 143 144 145 147 148 150 151 153 155 156 158 160 162 164 167 169 171 174 176 179 182 185 188 191 195 198 202 205 209 213 218 222 226 
23 28 32 37 41 45 49 52 56 59 63 66 69 72 75 77 80 82 85 87 89 92 94 96 97 99 101 103 104 106 107 108 110 111 112 113 115 116 117 118 119 120 121 121 122 123 124 125 126 127 127 128 129 130 131 132 133 133 134 135 136 137 138 139 141 142 143 144 146 147 148 150 151 153 155 157 158 160 162 165 167 169 172 174 177 179 182 185 188 191 195 198 202 205 209 213 217 222 226 231 
19 24 28 32 37 41 45 48 52 56 59 62 65 69 71 74 77 80 82 85 87 89 91 93 95 97 99 101 102 104 105 107 108 110 111 112 113 115 116 117 118 119 120 121 122 123 124 125 126 127 127 128 129 130 131 132 133 134 135 136 137 138 139 141 142 143 144 146 147 149 150 152 153 155 157 159 161 163 165 167 169 172 174 177 180 183 185 189 192 195 198 202 206 209 213 217 222 226 230 235 
14 19 24 28 32 37 41 45 48 52 55 59 62 65 68 71 74 77 79 82 84 86 89 91 93 95 97 99 100 102 104 105 107 108 110 111 112 114 115 116 117 118 119 120 121 122 123 125 126 127 127 128 129 131 132 133 134 135 136 137 138 139 140 142 143 144 146 147 149 150 152 154 155 157 159 161 163 165 168 170 172 175 177 180 183 186 189 192 195 199 202 206 209 213 217 222 226 230 235 240 
9 14 19 24 28 32 36 40 44 48 52 55 59 62 65 68 71 74 76 79 81 84 86 88 91 93 95 97 98 100 102 104 105 107 108 110 111 112 114 115 116 117 119 120 121 122 123 124 125 126 128 129 130 131 132 133 134 135 137 138 139 140 142 143 144 146 147 149 150 152 154 156 157 159 161 163 166 168 170 173 175 178 180 183 186 189 192 195 199 202 206 210 214 218 222 226 230 235 240 245 
5 10 14 19 24 28 32 36 40 44 48 51 55 58 61 65 68 70 73 76 79 81 83 86 88 90 92 94 96 98 100 102 103 105 107 108 110 111 113 114 115 117 118 119 120 122 123 124 125 126 128 129 130 131 132 134 135 136 137 139 140 141 143 144 146 147 149 151 152 154 156 158 160 162 164 166 168 171 173 175 178 181 184 186 189 193 196 199 203 206 210 214 218 222 226 230 235 240 244 249 
0 5 9 14 19 23 28 32 36 40 44 47 51 54 58 61 64 67 70 73 76 78 81 83 85 88 90 92 94 96 98 100 102 103 105 107 108 110 111 113 114 116 117 118 120 121 122 124 125 126 128 129 130 132 133 134 136 137 138 140 141 143 144 146 147 149 151 152 154 156 158 160 162 164 166 169 171 173 176 178 181 184 187 190 193 196 200 203 207 210 214 218 222 226 231 235 240 245 249 255 
